<svg width="41" height="29" viewBox="0 0 41 29" fill="none" xmlns="http://www.w3.org/2000/svg">
<g opacity="0.9">
<path d="M24.5198 0.728271C24.6125 0.738203 24.7019 0.748136 24.7945 0.761378C24.7052 0.748136 24.6125 0.738203 24.5198 0.728271Z" fill="#262626"/>
<path d="M30.2437 2.57567L29.7438 2.30753C29.7305 2.3009 29.714 2.29097 29.7007 2.28435C29.6478 2.25787 29.5948 2.23137 29.5418 2.20489C29.5749 2.22144 29.6114 2.238 29.6478 2.25456C29.5683 2.21152 29.4889 2.17179 29.4094 2.12876L29.0585 1.96985C29.0883 1.98309 29.1214 1.99965 29.1512 2.01289C28.7208 1.81426 28.2839 1.6355 27.8336 1.47659C25.9102 1.02306 23.9273 0.834354 20.5142 0.778076C26.8405 1.08926 29.0122 1.99303 29.7405 2.30421C29.9093 2.39028 30.0781 2.47967 30.2437 2.57567Z" fill="#262626"/>
<path d="M25.2084 0.576051C24.9601 0.516462 24.7118 0.456874 24.5 0.410527L24.3676 0.384038C23.6393 0.268171 22.1926 0.496601 20.5142 0.784613C20.6598 0.76475 20.8022 0.748196 20.9478 0.731644C23.7253 0.413838 24.5298 0.466808 25.2084 0.579365V0.576051Z" fill="#262626"/>
<path d="M23.1592 0.178709C22.9407 0.148915 22.6693 0.119121 22.4574 0.0959473C22.4574 0.0959473 22.4508 0.0959473 22.4475 0.0959473C22.4078 0.105879 22.4011 0.109192 20.5142 0.781218C22.7057 0.198574 22.9209 0.195261 23.2155 0.18864C23.199 0.18864 23.1791 0.185333 23.1592 0.182023V0.178709Z" fill="#262626"/>
<path d="M21.5074 0.0529587C21.4776 0.0430273 21.4412 0.0297935 21.4114 0.0198621C21.4114 0.0198621 21.4081 0.0198621 21.4048 0.0198621C21.1995 0.00993062 21.0737 0.00661732 21.0605 0.00661732C20.9446 0.00661732 20.799 0 20.6765 0C20.9082 0.00993143 20.9148 0.0165496 21.0208 0.152279C20.9766 0.311182 20.8089 0.520844 20.5176 0.781268C21.4478 0.264833 21.4776 0.165515 21.5107 0.0529587H21.5074Z" fill="#262626"/>
<path d="M2.05496 27.0433C5.68324 35.6109 14.7705 38.8915 17.9817 39.4312C17.9982 39.4312 18.0115 39.4345 18.028 39.4378C18.1968 39.4576 18.4087 39.4808 18.5742 39.4974L18.9119 39.5272C18.9119 39.5272 18.9251 39.5272 18.9285 39.5272C17.0349 39.3517 4.01145 35.5082 1.07837 23.6865C1.11147 23.862 1.14127 24.0341 1.17437 24.193C1.39286 25.0173 1.72722 26.0966 2.00861 26.9176C2.02517 26.9606 2.04172 27.0003 2.05496 27.0433Z" fill="#262626"/>
<path d="M19.9613 0.152192C20.4115 0.321027 20.4347 0.420339 20.5142 0.781181C20.8419 0.0429447 20.1599 0.0297068 19.5574 0.0197754C19.3456 0.0297068 19.0642 0.0495644 18.8556 0.0661168L18.657 0.0826753C18.9649 0.0628124 19.6071 0.0197734 19.9613 0.152192Z" fill="#262626"/>
<path d="M20.0672 39.5868C20.1434 39.5868 20.2162 39.5901 20.2923 39.5901H20.3254C20.3254 39.5901 20.3519 39.5901 20.3618 39.5901C20.4479 39.5901 20.5307 39.5901 20.6168 39.5901C20.6896 39.5901 20.7624 39.5901 20.8253 39.5901C20.8286 39.5901 20.8319 39.5901 20.8352 39.5901C19.3323 39.5637 -2.17257 31.4133 1.30343 14.8542C1.30343 14.8542 1.30343 14.8542 1.30343 14.8576C1.18425 15.3243 1.06838 15.9533 0.969069 16.4234C0.873066 17.0259 0.793614 17.837 0.727405 18.4428C0.373184 33.2969 18.1008 39.3981 20.0672 39.5868Z" fill="#262626"/>
<path d="M16.8263 0.344337C16.7866 0.350958 16.7436 0.360892 16.7039 0.367513C19.1238 -0.0462966 20.1335 0.549589 20.5175 0.781323C19.8323 0.0265339 18.6405 0.0397734 16.8297 0.344337H16.8263Z" fill="#262626"/>
<path d="M3.23695 10.0671C-5.4994 26.9108 18.9717 38.8021 21.8981 39.5403C21.918 39.5403 21.9378 39.5403 21.9577 39.537L22.0868 39.5271C22.1067 39.5271 22.1265 39.5237 22.1497 39.5204C22.2987 39.5072 22.4774 39.4873 22.6297 39.4741C22.6496 39.4741 22.6695 39.4708 22.686 39.4675C19.2199 36.8323 15.0024 35.3956 11.6621 32.5618C10.0267 31.1747 6.19652 27.9271 3.95864 23.5838C-0.52044 14.8938 3.46537 9.35205 5.42187 6.96851C5.35235 7.04796 5.28614 7.12741 5.21993 7.20355L4.88888 7.59749C4.37245 8.30925 3.72028 9.28584 3.2535 10.0373C3.24688 10.0472 3.24357 10.0572 3.23695 10.0671Z" fill="#262626"/>
<path d="M15.9325 0.532907C15.9325 0.532907 15.9557 0.526286 15.969 0.522976C15.9392 0.529597 15.9028 0.536217 15.8763 0.542838C15.6578 0.592495 15.3731 0.668635 15.1579 0.728224C14.7143 0.850711 14.1283 1.03279 13.698 1.195C13.4331 1.29432 13.0822 1.42674 12.824 1.53598C12.5128 1.6684 12.1056 1.86041 11.7978 2.00276C11.4833 2.14842 11.0761 2.3636 10.7781 2.53906C10.4272 2.7443 9.99355 3.01245 9.60953 3.26074C5.65351 5.98195 2.53173 10.3485 2.9621 15.2711C3.98172 26.8843 17.1342 34.8493 22.0834 37.8486C23.2266 38.5416 23.8313 39.0227 23.8976 39.292C23.8976 39.292 23.9207 39.2887 23.9307 39.2854C24.2021 39.2357 24.5431 39.1629 24.8146 39.1066C24.8245 39.1066 24.8344 39.1033 24.8443 39.1C24.9404 39.0669 25.0099 38.9278 25.0761 38.8484C24.851 38.4147 24.4107 38.1035 22.0304 36.5443C15.9061 32.532 9.74195 27.9172 6.14346 21.379C-1.97714 6.61756 13.7708 -1.01971 20.5176 0.777879C19.2099 0.271376 17.6176 0.215098 15.9359 0.529593L15.9325 0.532907Z" fill="#262626"/>
<path d="M22.7785 34.8957C26.5061 37.5308 27.3933 38.1565 26.2147 38.7392C26.228 38.7359 26.2412 38.7325 26.2512 38.7292C26.4332 38.673 26.6385 38.6034 26.8404 38.5372C26.9795 38.4909 27.1152 38.4412 27.2509 38.3916C28.9194 37.6169 27.4661 36.5443 23.9901 33.9853C20.1466 31.1549 15.3597 27.6325 11.301 22.4814C-0.682889 7.27307 12.1088 -0.254949 20.5108 0.781231C10.9634 -1.28782 -9.58145 12.0335 22.7752 34.8957H22.7785Z" fill="#262626"/>
<path d="M24.9701 31.9361C29.3167 35.2697 30.9455 36.5178 28.787 37.7625C28.8036 37.7559 28.8202 37.746 28.8367 37.7394C29.1975 37.5672 29.6478 37.3288 29.9954 37.1534C31.6771 36.1702 31.0051 35.0281 30.0285 33.9422C25.94 29.397 20.5109 26.3844 16.3231 21.9517C2.84615 7.68353 11.8871 0.585865 20.5142 0.784494C11.7215 -0.0166419 -3.97674 9.74264 24.9701 31.9394V31.9361Z" fill="#262626"/>
<path d="M28.3302 29.1786C32.4716 32.4957 33.9481 34.2801 31.7367 36.0743C32.1141 35.8095 32.5941 35.4321 32.9715 35.1441C33.1602 34.9885 33.3588 34.8197 33.5475 34.6508C35.2656 33.0783 34.3023 32.2276 22.7421 22.0445C5.98448 7.28642 13.5357 2.07572 18.998 0.986572C14.0455 1.9102 0.234179 6.66735 28.3302 29.1786Z" fill="#262626"/>
<path d="M20.2923 0.797852C19.8851 0.834267 19.4482 0.897168 18.9946 0.986551C19.5773 0.877305 20.0341 0.821025 20.2923 0.797852Z" fill="#262626"/>
<path d="M20.5143 0.78125C20.5143 0.78125 20.4216 0.787867 20.2925 0.797798C20.3653 0.791177 20.4415 0.78456 20.5143 0.78125Z" fill="#262626"/>
<path d="M27.5588 22.6835C34.428 28.212 37.0069 30.7412 34.7723 33.4889C34.7889 33.4723 34.8021 33.4591 34.8154 33.4425C35.1663 33.0651 35.59 32.5653 35.9211 32.1845C35.9277 32.1746 35.9343 32.168 35.9409 32.1581C37.8974 29.5957 36.027 26.8977 27.9627 20.631C6.92129 4.28384 18.0677 1.23158 20.5174 0.784668C18.7331 1.00978 3.77302 3.54229 27.5621 22.6835H27.5588Z" fill="#262626"/>
<path d="M28.9791 18.2605C36.7521 24.0671 38.8906 27.0366 37.4373 30.0061C37.4969 29.9068 37.5532 29.8108 37.6095 29.7148L37.6625 29.6221C37.7022 29.5526 37.7386 29.4897 37.775 29.4268L38.2186 28.5727C38.2716 28.4634 38.3246 28.3542 38.3775 28.2483C40.1122 24.2691 33.5376 19.4821 29.1744 16.3074C14.9559 5.96212 16.6178 2.15838 20.5142 0.787842C17.1872 1.65519 11.3475 5.09809 28.9791 18.2672V18.2605Z" fill="#262626"/>
<path d="M29.3563 13.7517C36.1428 18.532 40.2081 21.7299 39.3639 25.7191C39.4036 25.5833 39.4467 25.4476 39.4831 25.3152C39.6188 24.8186 39.7545 24.2592 39.8638 23.8122C40.4464 19.8364 36.3414 16.804 29.598 12.1925C25.1421 9.14352 16.8494 3.46936 20.5141 0.78125C14.7671 3.47267 25.7479 11.2093 29.3563 13.7517Z" fill="#262626"/>
<path d="M29.8565 10.2361C37.5037 15.1985 40.1024 17.4496 40.2415 20.866C40.2448 20.7998 40.2514 20.7303 40.2547 20.6641L40.2779 19.8298L40.258 19.0221C40.2547 18.9294 40.2514 18.84 40.2448 18.7473C39.9501 15.1621 35.1731 12.2058 29.1315 8.4716C24.8808 5.84639 20.0641 2.86696 20.5176 0.784668C18.528 2.89013 25.3476 7.31293 29.8598 10.2394L29.8565 10.2361Z" fill="#262626"/>
<path d="M29.3598 7.06795C36.4045 11.067 39.0561 13.0103 39.9003 15.94C39.7944 15.4335 39.6222 14.7913 39.4799 14.2484C39.4468 14.1358 39.4137 14.0266 39.3806 13.914C38.2351 10.9346 34.3983 8.79602 27.7343 5.29354C23.0235 2.81399 21.4709 1.84402 20.5142 0.784668C21.0637 2.36046 24.543 4.33681 29.3598 7.07126V7.06795Z" fill="#262626"/>
<path d="M38.3743 11.3284C38.3445 11.2688 38.318 11.2093 38.2882 11.1497L37.8877 10.3585L37.6195 9.88506C37.5698 9.79899 37.5202 9.71292 37.4672 9.62685C36.5602 8.21658 34.9182 7.16716 32.5677 5.93567C28.6845 3.90303 24.5199 2.5358 20.5176 0.78125C21.7656 1.57576 24.0598 2.6285 26.9631 3.96262C34.6666 7.50152 37.0402 9.03096 38.3776 11.3284H38.3743Z" fill="#262626"/>
<path d="M35.9708 7.47835C35.9344 7.432 35.9013 7.39228 35.8615 7.34262C35.8384 7.31282 35.8152 7.28634 35.7887 7.25654C35.7589 7.22013 35.7291 7.18372 35.6993 7.1473C35.408 6.80963 35.0803 6.44216 34.8187 6.14753C33.0973 4.38305 28.2839 2.57884 20.5142 0.78125C32.2995 4.31353 34.5804 5.96877 35.9708 7.47835Z" fill="#262626"/>
<path d="M32.7398 4.26387C32.4517 4.04207 32.1372 3.81033 31.8658 3.6117C31.8095 3.57198 31.7532 3.53557 31.697 3.49585C29.8265 2.31732 26.0691 1.40362 20.5142 0.78125C23.9703 1.29437 30.151 2.45304 32.9847 4.4625C32.902 4.39298 32.8192 4.32677 32.7398 4.26387Z" fill="#262626"/>
<path d="M24.8972 0.777986C25.3574 0.840885 25.8142 0.923647 26.2578 1.02627C27.049 1.15869 27.1484 1.18849 27.7509 1.38381C27.7343 1.37719 27.7144 1.36726 27.6979 1.36395C27.3966 1.24477 26.9861 1.10572 26.6783 0.996479H26.6716C25.9467 0.761435 25.0959 0.731646 24.1093 0.69192C24.1557 0.695231 24.1987 0.701845 24.2451 0.705155C23.7419 0.658808 23.2288 0.632324 22.709 0.632324C21.9112 0.67205 21.8052 0.678678 20.5142 0.784613C22.5667 0.698541 23.4936 0.71509 24.8972 0.7813V0.777986ZM24.5165 0.731645C24.6092 0.741576 24.6986 0.751509 24.7913 0.764751C24.7019 0.751509 24.6092 0.741576 24.5165 0.731645Z" fill="#262626"/>
</g>
</svg>
