<svg width="215" height="58" viewBox="0 0 100 100" fill="none" xmlns="http://www.w3.org/2000/svg">
<g opacity="0.5">
<rect x="47" y="37" width="56" height="56" transform="rotate(90 47 37)" fill="white"/>
<rect x="47" y="37" width="56" height="28" transform="rotate(90 47 37)" fill="white"/>
<path d="M-9 65C-9 80.464 3.53603 93 19 93L19 37C3.53602 37 -9 49.536 -9 65Z" fill="white"/>
<rect width="56" height="56" transform="matrix(4.37114e-08 1 1 -4.37114e-08 -9 -19)" fill="#FF9E66"/>
<rect x="103" y="37" width="56" height="56" transform="rotate(90 103 37)" fill="white"/>
<rect width="56" height="56" transform="matrix(4.37114e-08 1 1 -4.37114e-08 47 -19)" fill="white"/>
<path d="M47 37C54.354 37 61.636 35.5515 68.4303 32.7373C75.2245 29.923 81.3979 25.7981 86.598 20.598C91.7981 15.3979 95.923 9.22451 98.7373 2.43027C101.552 -4.36396 103 -11.646 103 -19L47 -19L47 37Z" fill="#FF9E66"/>
<rect x="159" y="37" width="56" height="56" transform="rotate(90 159 37)" fill="white"/>
<rect x="159" y="37" width="56" height="28" transform="rotate(90 159 37)" fill="#FFBE99"/>
<path d="M103 65C103 80.464 115.536 93 131 93L131 37C115.536 37 103 49.536 103 65Z" fill="#FFBE99"/>
<rect width="56" height="56" transform="matrix(4.37114e-08 1 1 -4.37114e-08 103 -19)" fill="white"/>
<path d="M159 37C151.646 37 144.364 35.5515 137.57 32.7373C130.775 29.923 124.602 25.7981 119.402 20.598C114.202 15.3979 110.077 9.22451 107.263 2.43027C104.448 -4.36396 103 -11.646 103 -19L159 -19L159 37Z" fill="#FF9E66"/>
<rect x="215" y="37" width="56" height="56" transform="rotate(90 215 37)" fill="url(#paint0_linear_73_9267)"/>
<rect width="56" height="56" transform="matrix(4.37114e-08 1 1 -4.37114e-08 159 -19)" fill="url(#paint1_linear_73_9267)"/>
</g>
<defs>
<linearGradient id="paint0_linear_73_9267" x1="243" y1="37" x2="243" y2="93" gradientUnits="userSpaceOnUse">
<stop stop-color="#FFBE99" stop-opacity="0"/>
<stop offset="1" stop-color="#FFBE99"/>
</linearGradient>
<linearGradient id="paint1_linear_73_9267" x1="28" y1="0" x2="28" y2="56" gradientUnits="userSpaceOnUse">
<stop stop-color="#FF9E66"/>
<stop offset="1" stop-color="#FF9E66" stop-opacity="0"/>
</linearGradient>
</defs>
</svg>
