<svg width="61" height="60" viewBox="0 0 61 60" fill="none" xmlns="http://www.w3.org/2000/svg">
<mask id="mask0_57_6958" style="mask-type:luminance" maskUnits="userSpaceOnUse" x="2" y="1" width="57" height="58">
<path d="M58.7954 1.875H2.42847V58.242H58.7954V1.875Z" fill="white"/>
</mask>
<g mask="url(#mask0_57_6958)">
<path fill-rule="evenodd" clip-rule="evenodd" d="M34.79 5.14253C34.4449 4.56736 33.9273 4.0497 33.1795 3.99219L33.4096 4.33729L33.5246 4.56736L33.9273 5.31509L34.0423 5.43012C34.3299 6.12033 34.5024 6.81054 34.5599 7.55826C34.5599 7.96088 34.4449 8.30599 34.3299 8.70861C34.1573 7.73081 33.6397 6.98309 33.0645 6.29288C32.4541 5.66797 31.7054 5.19514 30.8788 4.91246C29.7456 4.46215 28.5035 4.36197 27.3128 4.62488C26.8526 4.6824 26.45 4.91246 25.9899 5.14253C25.5872 5.3726 25.2421 5.71771 24.897 6.00529C24.0616 6.83587 23.4143 7.83623 22.999 8.93868C22.6539 9.80144 22.2512 10.6642 21.7336 11.4694C21.331 12.1596 20.7558 12.7923 20.1806 13.31L18.5701 14.4028C17.6245 14.9977 16.7034 15.631 15.8093 16.3009C14.4864 17.4512 13.5086 19.0042 12.991 20.7297C12.7609 21.5925 12.5883 22.5128 12.7034 23.3755C12.8184 23.8357 12.9334 24.2383 13.1635 24.6409V25.101C12.9334 26.1939 12.8759 27.3442 13.221 28.437C13.5996 29.7272 14.2464 30.9228 15.1191 31.9456L15.9243 33.0384C16.2694 33.6136 16.557 34.2463 16.6145 34.9365C16.6145 35.4542 16.442 35.9143 16.0394 36.2594C15.7298 36.5313 15.3514 36.7127 14.9456 36.7838C14.5397 36.8548 14.1222 36.8127 13.7387 36.662L13.4511 36.4895L13.221 36.3744L13.1635 36.4895C13.106 36.547 13.0485 36.662 13.106 36.7771L13.5086 37.5248C13.8537 37.9849 14.2563 38.33 14.774 38.5601C15.1766 38.7902 15.6367 38.8477 16.0969 38.7326C16.3845 38.6751 16.6145 38.5601 16.8446 38.3875C16.8446 38.9627 17.0172 39.5379 17.1897 40.0555C17.4198 40.6882 17.7649 41.3209 18.2825 41.7811C18.7427 42.2412 19.3179 42.4713 19.893 42.6438C20.4107 42.8164 20.9283 42.8164 21.446 42.7013C21.561 42.6438 21.561 42.5863 21.561 42.4713L21.3885 42.0686L21.331 41.9536L20.8708 40.8033C21.9061 41.551 23.114 41.8961 24.3794 42.0111C25.1846 42.0686 26.0474 41.9536 26.7951 41.666C26.9677 41.6085 27.1977 41.4935 27.2552 41.3209C27.3703 41.1484 27.2552 40.9758 27.1977 40.8033L26.9677 39.9405L26.9101 39.768C27.4278 40.1131 27.9455 40.3431 28.5781 40.3431C29.2683 40.3431 30.0161 40.0555 30.4187 39.4804L30.5912 39.4228C30.3036 36.8858 29.7047 34.3938 28.8082 32.0031C28.4194 30.9651 27.9381 29.9641 27.3703 29.0122L27.2552 28.6671C27.2552 27.8044 27.1402 26.8266 26.6226 26.1364C27.0252 25.5037 27.0827 24.6984 27.1402 24.0082C27.1402 23.433 27.1402 22.8579 26.8526 22.3402L27.0827 22.2827L27.5428 22.2252C27.6579 22.1677 27.7154 21.9951 27.7729 21.8801C28.158 20.2816 28.7375 18.7363 29.4984 17.2787L29.901 16.4734C30.0161 16.3009 30.0161 16.1283 30.0736 15.8983V15.6682L29.9586 14.863L29.901 14.3453L31.0514 14.6904H31.6266C34.5335 14.19 37.4976 14.1125 40.4267 14.4603L40.8293 14.5754L41.1169 14.6904C41.232 14.6904 41.4045 14.6329 41.462 14.5179C41.6346 14.3453 41.6921 14.1152 41.7496 13.8852L41.9222 14.0002L42.4398 14.4028L42.8424 14.6329C43.1078 14.6825 43.378 14.7018 43.6477 14.6904L44.568 15.6107L44.6255 15.6682C45.8376 17.0541 46.8802 18.5795 47.7314 20.2121C47.9615 20.3846 48.2491 20.2696 48.3641 20.0395C48.7667 19.1192 48.8242 18.0839 48.6517 17.1061C48.3321 15.6456 47.5687 14.3196 46.466 13.31C46.1209 12.9074 45.6608 12.5623 45.2006 12.2172L42.7849 10.9518C41.5771 10.4341 40.3117 10.0315 39.0463 9.80144C37.6084 9.51385 36.1704 9.51385 34.675 9.57137C35.3077 8.93868 35.4802 8.07592 35.4802 7.21316C35.4802 6.46543 35.1926 5.77522 34.79 5.14253ZM19.9505 15.3806C20.6408 14.5754 21.331 13.7701 21.8486 12.7923L20.9283 13.7701C20.3532 14.2878 19.7205 14.6329 19.0878 15.0355L18.4551 15.4381L18.2825 15.4956C17.5348 15.9558 16.7296 16.4734 16.0969 17.0486C14.8315 18.1414 13.9687 19.6369 13.5661 21.2474C13.3936 22.1101 13.2785 23.0304 13.5086 23.8932C13.8537 22.8579 14.3714 21.8226 14.9465 20.9023C15.6943 19.7519 16.6145 18.6591 17.5923 17.6813L18.6852 16.5885L19.9505 15.3806Z" fill="#262626"/>
<path d="M36.4579 10.3781C38.0683 10.4356 39.6788 10.7232 41.2893 11.2408C43.5407 11.8764 45.5462 13.18 47.041 14.9794C48.1339 16.4174 48.8241 18.1429 49.0542 19.9259C49.3646 21.8474 49.4033 23.8029 49.1692 25.7352L48.8816 27.6908L48.6515 28.8411C48.594 28.9562 48.594 28.9562 48.479 28.9562C48.3639 28.7261 48.3639 28.496 48.3639 28.2659C48.3064 27.4032 48.4215 26.5979 48.479 25.7352C48.5365 24.3548 48.6515 22.9744 48.5365 21.5939L48.1914 19.0057C47.7888 17.3952 47.041 15.8997 45.8907 14.6919C44.8554 13.6566 43.59 12.7938 42.2671 12.2186C41.0017 11.701 39.7363 11.3559 38.4135 11.1258C37.3781 10.9532 36.3428 10.8957 35.3075 10.8957C32.7553 10.8539 30.2303 11.426 27.9453 12.5637C27.1976 13.0814 26.5074 13.7141 25.9322 14.4043C24.1624 16.7275 23.0677 19.494 22.7687 22.3992C22.7112 23.7796 22.7687 25.1025 23.2289 26.4254L23.6315 27.2882L24.3217 27.3457L24.3792 27.5182C24.2067 27.6333 23.9766 27.6333 23.7465 27.6908C23.1714 27.8058 22.5962 28.0359 22.0785 28.381C21.6759 28.6686 21.2733 29.0137 21.0432 29.4738C20.7556 30.049 20.8707 30.7392 20.9857 31.3719C21.2733 32.4647 21.9635 33.5 22.8838 34.1902C23.5165 34.7079 24.3217 34.9955 25.127 35.1105C25.7021 35.2255 26.2773 35.1105 26.8525 35.053C27.1401 35.2831 27.3126 35.7432 27.4852 36.0308L28.5205 37.5838C29.4562 38.9136 30.7831 39.9189 32.3166 40.4596C33.582 40.9773 34.9049 41.2649 36.2278 41.5524L38.586 42.0126L39.5638 42.3002V42.5302H38.8736C37.5806 42.4581 36.2935 42.3044 35.0199 42.0701C33.3094 41.7297 31.6733 41.0869 30.1885 40.172C29.5558 39.7694 28.9806 39.2518 28.5205 38.6191C28.9188 41.0164 28.5986 43.478 27.6002 45.6937C26.7374 47.2467 25.2995 48.4545 23.574 48.9722C23.4014 49.0297 23.1714 49.0872 22.9988 49.0297C22.8838 49.0297 22.8838 48.9722 22.8838 48.8571C22.9413 48.6846 23.1138 48.5696 23.2289 48.512C23.9191 48.0519 24.7243 47.7068 25.4145 47.1891C26.1623 46.5564 26.795 45.8662 27.1976 45.0035C27.5427 44.1407 27.7727 43.1629 27.8878 42.1851C28.0028 41.4374 28.0603 40.6897 28.0028 39.8844L27.7727 37.6988L26.7374 35.6282L25.6446 35.8582C24.8003 35.8828 23.9633 35.6957 23.2098 35.3139C22.4563 34.9322 21.8104 34.3679 21.3308 33.6726C20.5811 32.7227 20.1755 31.5467 20.1805 30.3366C20.1805 29.8189 20.353 29.3013 20.6406 28.8986C20.9282 28.496 21.3308 28.1509 21.7334 27.9208C22.021 27.6908 22.4236 27.5757 22.7687 27.4607L22.2511 26.0803C21.9635 24.8149 21.9635 23.492 22.1361 22.2266C22.5127 19.0857 23.7688 16.115 25.7596 13.6566C26.2773 13.0814 26.795 12.5637 27.4276 12.1611C27.8303 11.931 28.2329 11.8735 28.578 11.6434C31.0512 10.5506 33.7545 10.2055 36.4579 10.3781Z" fill="#262626"/>
<path d="M35.3068 10.8942C37.6967 10.8053 40.0758 11.2575 42.2664 12.2171C43.5893 12.7922 44.8547 13.655 45.89 14.6903C47.0404 15.8982 47.7881 17.3936 48.1907 19.0041L48.5358 21.5924C48.6509 22.9728 48.5358 24.3532 48.4783 25.7336C48.4208 26.5964 48.3058 27.4016 48.3633 28.2644C48.3633 28.4944 48.3633 28.7245 48.4783 28.9546L48.4208 30.1049C48.3058 30.3925 48.3058 30.6801 48.3058 31.0252C48.1907 32.4056 48.1907 33.8436 47.9607 35.2815C47.9031 35.9717 47.7881 36.7194 47.5005 37.3521C47.328 37.8698 47.0404 38.3299 46.6378 38.7325C45.9475 39.4803 45.0848 40.1129 44.1645 40.6306C43.0717 41.2633 41.9213 41.5509 40.8285 42.011C40.5409 42.126 40.2533 42.2411 40.0808 42.4712C40.5409 42.5287 40.9435 42.4712 41.4037 42.3561C41.1161 43.0463 41.0586 43.7365 41.0586 44.4267C41.0586 44.7143 41.0011 45.0594 41.1161 45.347C41.2886 45.6346 41.5762 45.8647 41.8638 46.0372L43.8769 46.785C45.1423 47.2451 46.3502 47.8203 47.6155 48.3379C47.7306 48.568 47.9031 48.7405 47.9607 49.0281C48.3058 49.6608 48.3633 50.351 48.1332 51.0412C47.8456 51.789 47.2704 52.4216 46.5802 52.8243C45.66 53.457 44.5096 53.9171 43.4168 54.2047C38.9445 55.1602 34.3077 55.0221 29.9002 53.8021C28.7499 53.3994 27.5995 52.9968 26.5642 52.4216C25.759 51.9615 24.8962 51.3863 24.2635 50.6386C23.9184 50.1785 23.6308 49.5458 23.5733 48.9706C24.9201 48.5595 26.1121 47.7527 26.9943 46.6552C27.8765 45.5576 28.408 44.22 28.5198 42.8163C28.7499 41.4358 28.7499 39.9979 28.5198 38.6175C28.9799 39.2502 29.5551 39.7678 30.1878 40.1705L31.7408 40.9757C33.9957 41.9485 36.4176 42.4759 38.8729 42.5287H39.5631V42.2986L38.5853 42.011L36.2271 41.5509C34.9042 41.2633 33.5813 40.9757 32.3159 40.458C31.5682 40.1129 30.763 39.7103 30.0728 39.2502C29.4976 38.7325 28.9799 38.2149 28.5198 37.5822L27.4845 36.0292C27.3119 35.7416 27.1394 35.2815 26.8518 35.0514C26.2766 35.1089 25.7015 35.224 25.1263 35.1089C24.321 34.9939 23.5158 34.7063 22.8831 34.1887C21.964 33.4776 21.2984 32.4893 20.985 31.3703C20.87 30.7376 20.755 30.0474 21.0426 29.4722C21.2726 29.0121 21.6752 28.667 22.0779 28.3794C22.5955 28.0343 23.1707 27.8042 23.7459 27.6892C23.9759 27.6317 24.206 27.6317 24.3786 27.5167L24.321 27.3441L23.6308 27.2866L23.2282 26.4238C22.7681 25.1009 22.7106 23.778 22.8256 22.3976C23.1077 19.4981 24.1823 16.7322 25.9315 14.4027C26.5067 13.7125 27.1969 13.0798 27.9446 12.5622C30.2247 11.4045 32.7499 10.8127 35.3068 10.8366V10.8942Z" fill="#FFDECC"/>
<path d="M22.9421 29.7578C23.1722 29.7578 23.3448 29.7578 23.5748 29.8728C23.8624 29.9304 24.2075 30.1029 24.3801 30.333C24.4951 30.5055 24.4951 30.7356 24.3801 30.9082C24.0925 31.2533 23.6899 31.4833 23.4598 31.8284C23.8049 32.0585 24.265 32.1735 24.6677 32.3461C24.8977 32.4036 25.1278 32.5186 25.3003 32.6912L25.3579 32.8637L24.8977 32.7487L23.5173 32.3461C23.2872 32.2886 23.0572 32.1735 22.9997 31.9435C22.9421 31.7709 23.0572 31.5408 23.1722 31.3683L24.035 30.6206C23.8049 30.218 23.1722 30.1604 22.9421 29.7578ZM48.4223 30.1029L48.5373 30.2755L48.6524 31.1957C48.7717 32.902 48.7332 34.6156 48.5373 36.3148C48.4223 36.9475 48.2498 37.6377 47.9622 38.2129C46.4361 40.2095 44.2925 41.6453 41.8653 42.2966C41.8078 43.1018 41.6928 44.0796 41.7503 44.9999L42.0379 45.2875C42.498 45.6326 43.0732 45.8051 43.5909 45.9777C44.9362 46.4072 46.2443 46.9458 47.502 47.5882C47.9046 47.8182 48.2498 48.1058 48.5373 48.4509C48.2498 48.5085 47.9622 48.3934 47.6171 48.3359C46.3517 47.8182 45.1438 47.2431 43.8784 46.7829L41.8653 46.0352C41.5777 45.8627 41.2902 45.6326 41.1176 45.345C41.0026 45.0574 41.0601 44.7123 41.0601 44.4247C41.0601 43.7345 41.1176 43.0443 41.4052 42.3541C40.9451 42.4691 40.5424 42.5267 40.0823 42.4691C40.2548 42.2391 40.5424 42.124 40.83 42.009C41.9228 41.5489 43.0732 41.2613 44.166 40.6286C45.0863 40.1109 45.9491 39.4782 46.6393 38.7305C47.0419 38.3279 47.3295 37.8678 47.502 37.3501C47.7896 36.7174 47.9046 35.9697 47.9622 35.2795C48.1922 33.8415 48.1922 32.4036 48.3073 31.0232C48.3073 30.6781 48.3073 30.3905 48.4223 30.1029Z" fill="#262626"/>
<path d="M46.4656 24.1238C46.9257 24.0662 47.3858 24.1813 47.7309 24.4689C47.9035 24.6414 48.076 24.8715 48.076 25.1015C48.1336 25.3891 47.846 25.6767 47.5584 25.6767C47.3283 25.6192 47.2133 25.5042 47.0982 25.3316L46.5231 24.929C47.0407 25.8493 46.7531 27.1147 45.9479 27.7473C45.5453 28.0924 44.9126 28.2075 44.51 27.8049C44.1649 27.5173 44.0498 27.1147 44.0498 26.6545C43.9348 26.9421 43.7622 27.1722 43.7047 27.4598C43.6472 27.5748 43.6472 27.6898 43.5322 27.6898C43.4171 27.4022 43.4747 27.0571 43.5897 26.712C43.9348 25.7918 44.5675 24.9865 45.4302 24.5264C45.7178 24.2963 46.0629 24.1813 46.4656 24.1238ZM34.2719 24.7564C35.8249 24.814 37.3203 25.7918 37.953 27.1722C38.068 27.2872 38.1831 27.5173 38.0105 27.6898C37.838 27.6898 37.7229 27.4598 37.6079 27.3447C37.3778 26.8846 37.0327 26.5395 36.6301 26.2519C36.7451 26.8846 36.7451 27.4598 36.4 28.0349C36.1124 28.4951 35.4797 28.7827 34.9621 28.7251C34.5595 28.6101 34.1568 28.4376 33.8693 28.0924C33.5242 27.7473 33.4091 27.1722 33.4091 26.712C33.4091 26.3094 33.5817 25.9643 33.7542 25.6767C32.949 25.8493 32.1437 26.1944 31.5111 26.712C31.3385 26.7696 31.2235 26.8846 31.0509 26.8846C30.8208 26.8271 30.7058 26.6545 30.7058 26.4244C30.7058 26.2519 30.8208 26.0793 30.9359 25.9643C31.396 25.6192 31.8562 25.2741 32.4313 25.044C33.0065 24.814 33.6392 24.6989 34.2719 24.7564Z" fill="#262626"/>
<path d="M34.8483 18.6003C35.7111 18.6578 36.6889 18.8879 37.3791 19.463C37.6091 19.6356 37.8392 19.8657 37.8967 20.0957C37.9543 20.2683 37.9543 20.3833 37.7817 20.4408C37.6091 20.4408 37.4366 20.2683 37.3216 20.1532C36.6889 19.6931 35.9411 19.4055 35.1359 19.4055C34.6758 19.4055 34.2731 19.5206 33.813 19.6356C32.9502 19.8081 32.145 20.2683 31.6273 20.9585C31.4548 21.131 31.3398 21.3611 31.0522 21.4186C30.7646 21.4761 30.477 21.2461 30.477 20.9585C30.4195 20.7284 30.592 20.4984 30.7071 20.3258C31.3973 19.463 32.4326 18.8879 33.5254 18.6578C33.928 18.5428 34.3882 18.5428 34.8483 18.6003ZM46.6394 19.1755C46.927 19.2905 47.2145 19.5781 47.3871 19.8081C47.5596 19.9807 47.6747 20.2108 47.6747 20.4408C47.6747 20.7859 47.3296 21.016 46.9845 20.901C46.6969 20.7859 46.6394 20.4984 46.4093 20.2683C46.1792 20.0957 45.8916 19.8657 45.6616 19.8081C44.9714 19.5781 44.2812 19.8657 43.821 20.3258L43.3034 20.8435C43.3034 20.4408 43.5334 20.0957 43.821 19.8657C44.5112 19.1179 45.6616 18.8303 46.6394 19.1755Z" fill="#262626"/>
<path d="M42.8997 31.7734C42.8997 31.946 42.7847 32.1185 42.6696 32.2911C42.4396 32.6362 42.0369 32.8663 41.6343 32.9813C41.3467 33.0388 41.1167 32.8663 40.8866 32.9813C40.6565 32.9813 40.4265 33.0388 40.1964 32.9238C40.0813 32.8663 40.0813 32.6937 40.1964 32.5787C40.3689 32.3486 40.6565 32.1761 40.8866 32.1761C41.1167 32.1185 41.2892 32.1185 41.4618 32.2911L41.5193 32.6937C41.8069 32.5787 41.9219 32.4061 42.152 32.2336L42.8997 31.7734Z" fill="#262626"/>
<path d="M35.3649 34.875C35.5375 34.875 35.6525 34.99 35.7675 35.1051L36.5153 35.5077C37.1479 35.7953 37.8381 35.9678 38.4708 36.1404C39.3336 36.428 40.1964 36.4855 41.0591 36.4855C41.7493 36.543 42.382 36.6005 43.0147 36.543L43.2448 36.658C42.2095 37.1757 40.8866 37.2907 39.7362 37.2332C38.4133 37.1757 37.0904 36.7731 35.9401 36.1979C35.595 35.9678 35.1924 35.7378 35.1348 35.2776C35.0773 35.1051 35.1924 34.875 35.3649 34.875Z" fill="#262626"/>
<path d="M37.2057 9.57456C39.1349 9.68489 41.0268 10.153 42.7849 10.955C43.5901 11.3576 44.4529 11.7602 45.2006 12.2779C45.6608 12.5655 46.1209 12.9106 46.466 13.3132L47.7314 14.7511C47.2137 14.9812 46.6961 14.9237 46.1784 14.8662C45.2006 14.7511 44.2228 14.6361 43.245 14.6936L42.7849 14.6361L42.3823 14.3485L41.6921 13.8884C41.6921 14.1184 41.6346 14.291 41.5195 14.5211C41.4045 14.6361 41.2895 14.6936 41.1169 14.6936C40.8868 14.6361 40.7143 14.5211 40.4842 14.5211C37.5234 14.0847 34.5107 14.143 31.569 14.6936H30.9363L29.901 14.3485C29.9585 14.8662 30.1311 15.3838 30.0736 15.844C30.0161 16.074 30.0161 16.3041 29.901 16.4766C29.4984 17.2819 29.0383 18.0296 28.6932 18.8924C28.2905 19.8702 27.9454 20.9055 27.7154 21.9408C27.7154 22.0558 27.6579 22.1709 27.5428 22.2284L26.8526 22.3434C27.1402 22.8611 27.1977 23.4938 27.1402 24.0689C27.0827 24.7591 26.9676 25.5644 26.6225 26.1395C27.0252 26.6572 27.1977 27.3474 27.1977 28.0376C27.2552 29.1304 27.1977 30.1658 26.7951 31.2011C26.6801 31.4311 26.5075 31.7187 26.2199 31.8338C26.1624 31.8913 25.9899 31.8913 25.9899 31.7762C25.8748 31.5462 25.8748 31.2586 25.8173 31.0285C25.7023 30.1658 25.2996 29.3605 24.667 28.7278C24.2068 28.3252 23.6892 27.9226 23.1715 27.635C22.8264 27.52 22.5388 27.4049 22.2512 27.1749L21.9061 26.7147C21.2159 24.8742 20.9858 22.8611 21.2159 20.9055C21.4604 18.6135 22.1856 16.3988 23.3441 14.406C23.9192 13.4857 24.6094 12.6805 25.3572 11.9328C25.9323 11.4151 26.5075 10.955 27.1402 10.6099L27.9454 10.3223L29.786 9.6896L30.8788 9.57456H33.3521C34.675 9.57456 35.8828 9.45953 37.2057 9.57456Z" fill="#262626"/>
</g>
</svg>
