<svg width="24" height="24" viewBox="0 0 24 24" fill="none" xmlns="http://www.w3.org/2000/svg">
<path d="M21.2011 3.4939H2.79891C1.25288 3.4939 0 4.74677 0 6.29238V17.7077C0 19.2534 1.25288 20.5062 2.79891 20.5062H21.2011C22.7467 20.5062 24 19.2534 24 17.7077V6.29238C24 4.74677 22.7467 3.4939 21.2011 3.4939ZM22.6636 18.4617L22.1308 19.0927L14.6699 13.0035L13.5144 14.1029C12.6581 14.8893 11.342 14.8893 10.4856 14.1029L9.33014 13.0035L1.86919 19.0927L1.33641 18.4617L8.34141 12.0625L1.29052 5.43607L1.70738 4.88374L12 12.6826L22.2926 4.88374L22.7091 5.43607L15.6586 12.0625L22.6636 18.4617Z" fill="#262626"/>
</svg>
